# xmcd
#
# Track frame offsets:
#	200
#	136827
#	139562
#	276115
#
# Disc length: 3712 seconds
# Revision: 0
# Processed by: cddbd v1.5.2PL0 Copyright (c) Steve Scherf et al.
# Submitted via: dBpowerAMP V12.0
#
DISCID=320e7e04
DTITLE=Various Artist - Air Force Country Music Time, Vol. VIII, Disc 12
DYEAR=1900
DGENRE=Country
TTITLE0=Confederate Railroad - Confederate Railroad Medley
TTITLE1=Promo
TTITLE2=Victoria Shaw and Neal McCoy - Victoria Shaw/Neal McCoy Medley
TTITLE3=Promo
EXTD=
EXTT0=
EXTT1=
EXTT2=
EXTT3=
PLAYORDER=
